<svg width="81" height="79" viewBox="0 0 81 79" fill="none" xmlns="http://www.w3.org/2000/svg">
<path d="M41.381 0.447159C27.5309 0.410831 15.3428 7.57655 8.37687 18.4023C8.06808 18.8837 8.4132 19.5194 8.98537 19.5194H15.37C15.806 19.5194 16.2147 19.3287 16.4871 18.9927C17.1229 18.2207 17.804 17.476 18.5215 16.7676C21.4822 13.8159 24.9243 11.4909 28.7569 9.87431C32.7167 8.20321 36.9308 7.3495 41.2811 7.3495C45.6314 7.3495 49.8454 8.19413 53.8052 9.87431C57.6378 11.4909 61.0799 13.8159 64.0406 16.7676C67.0014 19.7192 69.3173 23.1613 70.943 26.9849C72.6232 30.9446 73.4678 35.1496 73.4678 39.4999C73.4678 43.8502 72.6141 48.0552 70.943 52.0149C69.3264 55.8385 67.0014 59.2806 64.0406 62.2322C61.0799 65.1839 57.6378 67.5089 53.8052 69.1255C49.8423 70.7993 45.5829 71.658 41.2811 71.6503C36.9308 71.6503 32.7167 70.7966 28.7569 69.1255C24.9319 67.5105 21.456 65.1696 18.5215 62.2322C17.804 61.5147 17.1319 60.77 16.4871 60.0071C16.2147 59.6711 15.7969 59.4804 15.37 59.4804H8.98537C8.4132 59.4804 8.059 60.1161 8.37687 60.5975C15.3337 71.396 27.4673 78.5526 41.2811 78.5526C62.7328 78.5526 80.1522 61.2877 80.3701 39.8995C80.5881 18.1662 63.1415 0.501651 41.381 0.447159ZM29.8759 49.6718V42.7694H1.35828C0.958667 42.7694 0.631714 42.4425 0.631714 42.0429V36.9569C0.631714 36.5573 0.958667 36.2304 1.35828 36.2304H29.8759V29.328C29.8759 28.7195 30.5843 28.3744 31.0565 28.7559L43.9439 38.9277C44.0308 38.9957 44.101 39.0825 44.1493 39.1817C44.1976 39.2808 44.2227 39.3896 44.2227 39.4999C44.2227 39.6102 44.1976 39.719 44.1493 39.8181C44.101 39.9173 44.0308 40.0041 43.9439 40.0721L31.0565 50.2439C30.5843 50.6163 29.8759 50.2803 29.8759 49.6718Z" fill="black"/>
</svg>
