<svg width="116" height="83" viewBox="0 0 116 83" fill="none" xmlns="http://www.w3.org/2000/svg">
<path d="M110.2 53.125H98.6V64.75H102.66C103.621 64.75 104.4 65.4039 104.4 66.2031V69.1094C104.4 69.9086 103.621 70.5625 102.66 70.5625H13.34C12.3794 70.5625 11.6 69.9086 11.6 69.1094V66.2031C11.6 65.4039 12.3794 64.75 13.34 64.75H17.4V53.125H5.8C2.59187 53.125 0 55.7225 0 58.9375V76.375C0 79.59 2.59187 82.1875 5.8 82.1875H110.2C113.408 82.1875 116 79.59 116 76.375V58.9375C116 55.7225 113.408 53.125 110.2 53.125ZM92.8 64.75V6.67949C92.8 3.42813 90.1719 0.8125 86.9456 0.8125H29.0725C25.8281 0.8125 23.2 3.44629 23.2 6.67949V64.75H92.8ZM38.28 31.6914L42.9019 27.0959C43.6631 26.333 44.8956 26.333 45.6569 27.1141L53.1425 34.6703L70.3975 17.5234C71.1588 16.7605 72.3913 16.7605 73.1525 17.5416L77.7381 22.1734C78.4994 22.9363 78.4994 24.1715 77.72 24.9344L54.4656 48.0391C53.7044 48.802 52.4719 48.802 51.7106 48.0209L38.28 34.4523C37.5006 33.6895 37.5187 32.4543 38.28 31.6914Z" fill="black"/>
</svg>
